<svg width="195" height="195" viewBox="0 0 195 195" fill="none" xmlns="http://www.w3.org/2000/svg">
<path d="M178.027 108.81C176.736 94.6919 165.36 81.5099 151.258 80.2385C142.155 79.4195 132.308 83.1362 124.184 78.9476C117.413 75.4376 114.235 67.5518 112.679 60.095C111.123 52.6382 110.557 44.7446 106.727 38.1575C102.18 30.3302 93.5181 25.5254 84.63 23.8874C69.9933 21.1886 51.7491 26.1299 41.847 37.2293C31.9449 48.3287 26.637 71.6078 30.9855 85.8311C33.1851 106.891 44.7369 126.613 61.4055 139.651C78.0741 152.689 99.5982 159.112 120.764 158.398C134.913 157.923 149.304 154.179 160.524 145.528C171.744 136.878 179.322 122.889 178.027 108.81Z" fill="#EBEBEB"/>
<path d="M185.351 183.011C185.351 183.066 145.712 183.113 96.8214 183.113C47.931 183.113 8.29138 183.066 8.29138 183.011C8.29138 182.957 47.9271 182.91 96.8214 182.91C145.716 182.91 185.351 182.953 185.351 183.011Z" fill="#263238"/>
<path d="M84.3999 169.381L83.4912 179.4L80.4843 187.118C80.4329 187.25 80.4091 187.39 80.4144 187.531C80.4197 187.672 80.454 187.811 80.515 187.938C80.5761 188.065 80.6627 188.179 80.7695 188.271C80.8762 188.364 81.0008 188.433 81.1356 188.475C81.2923 188.526 81.459 188.537 81.6212 188.51C81.7835 188.482 81.9367 188.415 82.0677 188.315C83.7603 187.024 89.9613 182.251 89.9886 181.514C90.0198 180.66 91.65 171.003 91.65 171.003L84.3999 169.381Z" fill="#92E3A9"/>
<g opacity="0.6">
<path d="M81.12 188.479L90.051 180.843L90.0003 181.264C89.9612 181.631 89.7908 181.972 89.5206 182.224C88.803 182.898 86.7906 184.716 82.0833 188.323C81.9482 188.427 81.7894 188.495 81.6213 188.523C81.4532 188.55 81.2809 188.535 81.12 188.479Z" fill="white"/>
</g>
<g opacity="0.6">
<path d="M88.3818 177.384C88.2511 177.46 88.1525 177.581 88.1045 177.725C88.0564 177.868 88.0621 178.024 88.1205 178.164C88.1909 178.3 88.3112 178.405 88.4565 178.455C88.6018 178.505 88.7609 178.497 88.9005 178.433C89.0416 178.351 89.1475 178.221 89.1979 178.066C89.2483 177.911 89.2396 177.743 89.1735 177.594C89.0849 177.46 88.9475 177.365 88.7902 177.33C88.633 177.295 88.4684 177.323 88.3311 177.407" fill="white"/>
</g>
<path d="M83.9202 184.373C83.7189 184.033 83.4541 183.735 83.1402 183.495C82.7902 183.307 82.4077 183.188 82.0131 183.144C82.0131 183.117 82.1418 183.054 82.3797 183.047C82.6924 183.047 82.9984 183.138 83.2611 183.308C83.5236 183.475 83.7322 183.715 83.8617 183.998C83.9475 184.217 83.9475 184.365 83.9202 184.373Z" fill="#263238"/>
<path d="M83.07 185.64C83.0193 185.679 82.7346 185.316 82.2354 185.11C81.9189 185.013 81.5973 184.933 81.2721 184.872C81.4371 184.794 81.6184 184.756 81.8009 184.762C81.9834 184.768 82.1618 184.818 82.3212 184.907C82.875 185.133 83.109 185.609 83.07 185.64Z" fill="#263238"/>
<path d="M85.4411 182.805C85.0526 182.472 84.6393 182.17 84.2048 181.9C83.7376 181.692 83.2552 181.52 82.7618 181.385C83.2973 181.342 83.8339 181.453 84.3085 181.704C84.7832 181.956 85.1761 182.337 85.4411 182.805Z" fill="#263238"/>
<path d="M85.9716 179.79C85.9404 179.848 85.4139 179.552 84.6963 179.447C83.9787 179.341 83.3937 179.447 83.3781 179.38C83.8072 179.209 84.2747 179.156 84.7311 179.228C85.1876 179.301 85.6162 179.495 85.9716 179.79Z" fill="#263238"/>
<path d="M86.3148 176.849C85.8957 176.658 85.452 176.527 84.9966 176.459C84.5354 176.459 84.0763 176.52 83.6316 176.643C83.6316 176.619 83.7408 176.506 83.9865 176.401C84.3116 176.268 84.6635 176.213 85.0137 176.241C85.3639 176.268 85.7027 176.378 86.0028 176.561C86.229 176.697 86.3343 176.826 86.3148 176.849Z" fill="#263238"/>
<path d="M85.0785 175.89C85.0602 175.759 85.0708 175.626 85.1097 175.5C85.1818 175.157 85.3224 174.832 85.5231 174.544C85.6514 174.322 85.8484 174.147 86.0847 174.045C86.1657 174.02 86.2527 174.02 86.3336 174.046C86.4146 174.072 86.4856 174.122 86.5371 174.19C86.6296 174.328 86.6684 174.496 86.6463 174.661C86.5839 174.994 86.4079 175.295 86.1483 175.513C85.8887 175.731 85.5615 175.852 85.2228 175.855C84.8862 175.853 84.5579 175.751 84.28 175.561C84.002 175.371 83.7871 175.103 83.6628 174.79C83.6316 174.711 83.6179 174.626 83.6226 174.541C83.6273 174.457 83.6503 174.374 83.6901 174.299C83.7359 174.226 83.8043 174.171 83.8846 174.142C83.965 174.112 84.0528 174.11 84.1347 174.135C84.3747 174.216 84.5888 174.361 84.7548 174.552C85.0032 174.799 85.2053 175.088 85.3515 175.406C85.4125 175.519 85.4509 175.642 85.4646 175.769C85.2463 175.364 84.9719 174.993 84.6495 174.665C84.4974 174.505 84.3087 174.385 84.0996 174.314C84.0544 174.3 84.0059 174.301 83.9615 174.317C83.917 174.334 83.8792 174.364 83.8539 174.404C83.8324 174.455 83.8213 174.509 83.8213 174.564C83.8213 174.619 83.8324 174.673 83.8539 174.724C83.969 174.99 84.1583 175.216 84.3989 175.378C84.6396 175.539 84.9215 175.627 85.2111 175.633C85.4969 175.629 85.773 175.528 85.9946 175.348C86.2161 175.167 86.3702 174.917 86.4318 174.638C86.4518 174.524 86.4296 174.406 86.3694 174.307C86.342 174.268 86.3031 174.239 86.2584 174.223C86.2136 174.208 86.1651 174.207 86.1198 174.221C85.9203 174.308 85.7518 174.454 85.6362 174.638C85.3788 175.02 85.1901 175.443 85.0785 175.89Z" fill="#263238"/>
<path d="M123.544 72.0447C123.554 72.0883 123.554 72.1337 123.544 72.1773C123.376 72.7896 122.324 75.3519 121.965 75.3402C121.606 75.3285 120.763 74.7786 120.838 74.412C120.912 74.0454 122.257 71.2296 122.257 71.2296C122.257 71.2296 122.499 70.8006 123.31 70.9917C123.408 71.019 123.521 72.15 123.544 72.0447Z" fill="#EB996E"/>
<path d="M122.21 70.5159C122.21 70.5159 122.21 70.5705 122.191 70.6446C122.019 71.2608 120.97 73.8231 120.611 73.8075C120.253 73.7919 119.41 73.2459 119.484 72.8832C119.558 72.5205 120.904 69.7008 120.904 69.7008C120.904 69.7008 121.146 69.2679 121.957 69.459C122.46 69.576 122.21 70.5159 122.21 70.5159Z" fill="#EB996E"/>
<path d="M121.033 69.4551C121.033 69.4551 121.033 69.5097 121.033 69.5838C120.865 70.2 119.812 72.7623 119.453 72.7467C119.094 72.7311 118.252 72.1851 118.326 71.8224C118.4 71.4597 119.73 68.64 119.73 68.64C119.679 68.7297 119.613 68.1252 120.783 68.3982C121.29 68.5152 121.033 69.4551 121.033 69.4551Z" fill="#EB996E"/>
<path d="M119.547 68.4332C119.547 68.4332 119.547 68.4878 119.547 68.5619C119.379 69.1781 118.326 71.7365 117.967 71.7248C117.608 71.7131 116.766 71.1632 116.84 70.8005C116.914 70.4378 118.26 67.6181 118.26 67.6181C118.26 67.6181 118.501 67.1852 119.313 67.3763C119.792 67.4933 119.547 68.4332 119.547 68.4332Z" fill="#EB996E"/>
<path d="M121.103 73.6554C121.355 73.2801 121.561 72.8754 121.715 72.4503C121.919 72.0516 122.069 71.6281 122.164 71.1906C121.91 71.5666 121.704 71.9727 121.551 72.3996C121.345 72.7959 121.195 73.2183 121.103 73.6554Z" fill="#D1734A"/>
<path d="M119.578 73.0665C119.914 72.5187 120.197 71.9402 120.424 71.3388C120.705 70.762 120.935 70.1617 121.111 69.5448C120.776 70.0936 120.493 70.6719 120.264 71.2725C119.983 71.8493 119.754 72.4496 119.578 73.0665Z" fill="#D1734A"/>
<g opacity="0.78">
<path d="M118.084 72.3332C118.427 71.7807 118.717 71.197 118.95 70.5899C119.232 70.0137 119.462 69.4133 119.636 68.7959C119.304 69.3445 119.021 69.9214 118.79 70.5197C118.502 71.1023 118.266 71.7091 118.084 72.3332Z" fill="#D1734A"/>
</g>
<path d="M121.633 77.22C121.696 77.0679 122.717 74.0337 122.717 74.0337L116.867 71.1516C116.571 71.5416 115.67 75.7965 115.67 75.7965L115.877 77.2473C115.877 77.2473 120.315 79.7979 120.436 79.8213C120.557 79.8447 121.633 77.22 121.633 77.22Z" fill="#EB996E"/>
<path d="M117.062 75.9096L116.466 73.71C116.206 72.7439 116.327 71.7148 116.805 70.8357L117.172 70.1649L122.14 72.4269C122.14 72.4269 120.99 74.0571 119.726 73.1757L120.697 75.0633L117.062 75.9096Z" fill="#EB996E"/>
<path d="M120.268 75.2426C120.241 75.2426 120.268 74.9852 120.198 74.5523C120.078 73.9563 119.743 73.4249 119.258 73.0586L118.798 72.7193L119.352 72.8714L120.631 73.2302H120.604C120.882 73.2668 121.165 73.2236 121.42 73.1055C121.675 72.9874 121.891 72.7994 122.043 72.5633C122.066 72.5268 122.084 72.4875 122.097 72.4463L122.171 72.6023C120.74 72.0212 119.441 71.4791 118.552 71.0423C118.1 70.82 117.737 70.6289 117.495 70.4924C117.361 70.4314 117.238 70.3498 117.129 70.2506C117.639 70.4329 118.139 70.6425 118.626 70.8785C119.543 71.2685 120.834 71.795 122.269 72.3761L122.378 72.419L122.339 72.5321C122.321 72.5877 122.298 72.6412 122.269 72.692C122.098 72.9924 121.83 73.2252 121.508 73.3511C121.216 73.4616 120.903 73.5055 120.592 73.4798H120.565L119.293 73.0898L119.387 72.9026C119.9 73.307 120.235 73.8964 120.319 74.5445C120.364 74.7776 120.347 75.0186 120.268 75.2426Z" fill="#D1734A"/>
<path d="M121.462 73.0391C121.512 73.0391 121.426 73.3121 121.504 73.6709C121.52 73.7686 121.567 73.8588 121.637 73.9288C121.707 73.9988 121.797 74.045 121.894 74.0609C122.018 74.0527 122.136 74.0124 122.239 73.9439C122.342 73.8755 122.425 73.7814 122.479 73.6709C122.78 73.1444 123.088 72.6647 123.259 72.3137C123.431 71.9627 123.54 71.7287 123.575 71.7404C123.61 71.7521 123.575 72.0017 123.423 72.3917C123.207 72.881 122.958 73.3552 122.678 73.8113C122.602 73.9613 122.485 74.087 122.341 74.1745C122.197 74.262 122.032 74.3077 121.863 74.3066C121.72 74.2809 121.59 74.2082 121.494 74.1001C121.397 73.992 121.339 73.8547 121.329 73.7099C121.305 73.5396 121.321 73.366 121.376 73.2029C121.415 73.0937 121.446 73.0352 121.462 73.0391Z" fill="#D1734A"/>
<path d="M101.201 47.1041L99.489 64.6541C99.4227 65.3259 99.0955 65.9449 98.5777 66.3781C98.0599 66.8113 97.3929 67.024 96.72 66.9707L92.6913 66.647C92.0179 66.5931 91.3927 66.2767 90.9506 65.766C90.5084 65.2552 90.2848 64.5912 90.3279 63.917C90.4566 61.811 90.6594 59.237 90.6594 59.237C90.6594 59.237 86.9115 58.6559 86.8647 54.908C86.8413 53.114 87.0948 49.448 87.3639 46.0979C87.507 44.3192 88.3149 42.6596 89.6267 41.4497C90.9385 40.2399 92.6578 39.5685 94.4424 39.5693H94.692C95.6187 39.6237 96.5252 39.8634 97.3577 40.2743C98.1902 40.6851 98.9318 41.2588 99.5387 41.9613C100.146 42.6638 100.605 43.4809 100.891 44.3643C101.176 45.2476 101.282 46.1793 101.201 47.1041Z" fill="#EB996E"/>
<path d="M90.6516 59.1942C92.3864 59.2304 94.0923 58.7469 95.55 57.8058C95.55 57.8058 94.38 60.5046 90.6555 60.1653L90.6516 59.1942Z" fill="#D1734A"/>
<path d="M88.1751 48.8787C88.2414 48.9489 88.647 48.6486 89.2242 48.6525C89.8014 48.6564 90.2226 48.9411 90.285 48.8709C90.3474 48.8007 90.246 48.711 90.0627 48.5784C89.8142 48.4064 89.5187 48.3151 89.2164 48.3171C88.9164 48.314 88.6235 48.4084 88.3818 48.5862C88.2024 48.7227 88.14 48.8475 88.1751 48.8787Z" fill="#263238"/>
<path d="M93.8184 48.8787C93.8847 48.9489 94.2903 48.6486 94.8675 48.6525C95.4447 48.6564 95.862 48.9411 95.9283 48.8709C95.9946 48.8007 95.8893 48.711 95.706 48.5784C95.4556 48.4072 95.1591 48.316 94.8558 48.3171C94.5559 48.3148 94.2633 48.4092 94.0212 48.5862C93.8457 48.7227 93.7872 48.8475 93.8184 48.8787Z" fill="#263238"/>
<path d="M91.7475 52.2171C91.444 52.1207 91.1295 52.063 90.8115 52.0455C90.6633 52.0455 90.5268 52.0026 90.4995 51.9012C90.4866 51.7498 90.5221 51.5982 90.6009 51.4683C90.7374 51.1095 90.8817 50.739 91.0338 50.3451C91.6383 48.7539 92.0751 47.4396 92.0127 47.4162C91.9503 47.3928 91.4043 48.6681 90.7998 50.2632L90.3825 51.3864C90.2919 51.5645 90.2658 51.7684 90.3084 51.9636C90.3306 52.0153 90.3637 52.0616 90.4054 52.0993C90.4471 52.137 90.4965 52.1652 90.5502 52.182C90.6318 52.2027 90.7156 52.2132 90.7998 52.2132C91.1144 52.2525 91.4326 52.2538 91.7475 52.2171Z" fill="#263238"/>
<path d="M93.444 52.6148C93.3504 52.6148 93.3465 53.2349 92.8122 53.6795C92.2779 54.1241 91.611 54.0695 91.6071 54.1397C91.6032 54.2099 91.7553 54.2606 92.0361 54.2684C92.4027 54.2752 92.7595 54.1507 93.0423 53.9174C93.3152 53.6965 93.4903 53.3771 93.5298 53.0282C93.5532 52.7669 93.4869 52.6109 93.444 52.6148Z" fill="#263238"/>
<path d="M93.6897 45.6885C93.7443 45.8445 94.3215 45.7704 94.9962 45.8523C95.6709 45.9342 96.2169 46.1175 96.3066 45.9771C96.3495 45.9108 96.252 45.7626 96.0336 45.6105C95.7391 45.425 95.4063 45.3089 95.0604 45.271C94.7144 45.2332 94.3644 45.2746 94.0368 45.3921C93.7911 45.4896 93.6663 45.63 93.6897 45.6885Z" fill="#263238"/>
<path d="M88.3896 46.172C88.491 46.3007 88.8849 46.172 89.3646 46.172C89.8443 46.172 90.246 46.2578 90.3357 46.1213C90.3786 46.055 90.3357 45.9263 90.1368 45.8015C89.901 45.6551 89.6272 45.5814 89.3497 45.5897C89.0723 45.5981 88.8034 45.688 88.5768 45.8483C88.3974 45.9731 88.3428 46.1057 88.3896 46.172Z" fill="#263238"/>
<path d="M97.1295 42.9936H97.1529C97.7499 43.4647 98.1424 44.1477 98.2488 44.9007C98.2467 44.9253 98.2467 44.9501 98.2488 44.9748C98.397 46.0434 98.3697 47.1315 98.5257 48.2001C98.6264 49.2838 99.0895 50.3019 99.84 51.09C100.164 51.3903 100.737 51.6009 101.01 51.246C101.097 51.097 101.143 50.9273 101.143 50.7546C101.342 48.1728 102.047 45.8835 102.044 43.1847C102.044 42.8233 101.958 42.4671 101.794 42.1451C101.63 41.8231 101.392 41.5446 101.1 41.3322C100.534 40.9422 99.8439 40.5093 99.216 40.8057C98.5881 41.1021 97.773 42.2799 97.2855 42.7557" fill="#263238"/>
<path d="M99.9375 48.7967C99.9999 48.7694 102.511 48.0167 102.43 50.5985C102.348 53.1803 99.7932 52.5485 99.7893 52.4783C99.7854 52.4081 99.9375 48.7967 99.9375 48.7967Z" fill="#EB996E"/>
<path d="M100.62 51.5307C100.62 51.5307 100.663 51.5619 100.737 51.6009C100.845 51.6438 100.965 51.6438 101.072 51.6009C101.241 51.5018 101.38 51.3596 101.475 51.1889C101.571 51.0182 101.619 50.8252 101.615 50.6298C101.628 50.4101 101.592 50.1903 101.509 49.9863C101.488 49.9055 101.447 49.8312 101.391 49.7694C101.334 49.7077 101.264 49.6603 101.186 49.6314C101.135 49.6162 101.08 49.6192 101.031 49.6398C100.982 49.6604 100.941 49.6974 100.916 49.7445C100.881 49.8147 100.893 49.8693 100.881 49.8732C100.87 49.8771 100.827 49.8264 100.85 49.7211C100.867 49.6589 100.904 49.604 100.955 49.5651C101.029 49.5155 101.117 49.4947 101.205 49.5066C101.31 49.5305 101.407 49.5811 101.487 49.6535C101.567 49.7259 101.627 49.8177 101.661 49.92C101.761 50.1453 101.805 50.3915 101.79 50.6376C101.794 50.8662 101.732 51.091 101.61 51.2844C101.488 51.4778 101.312 51.6312 101.104 51.7257C101.037 51.74 100.967 51.7401 100.9 51.726C100.833 51.7119 100.769 51.6839 100.714 51.6438C100.62 51.5931 100.593 51.5346 100.62 51.5307Z" fill="#D1734A"/>
<path d="M99.3096 41.2151C99.9414 40.1933 98.2098 38.7191 96.9462 38.3213C95.6826 37.9235 94.0173 38.5397 92.7576 38.957C91.9776 39.2183 91.1742 39.5888 90.3357 39.5537C89.7774 39.4974 89.2306 39.358 88.7133 39.1403C88.1938 38.9217 87.6351 38.8116 87.0714 38.8166C86.7905 38.8224 86.5165 38.905 86.2793 39.0556C86.0421 39.2062 85.8507 39.419 85.7259 39.6707C85.6723 39.7983 85.6467 39.9358 85.6509 40.0741C85.6552 40.2124 85.6892 40.3482 85.7506 40.4721C85.8121 40.5961 85.8995 40.7054 86.0069 40.7925C86.1144 40.8797 86.2394 40.9427 86.3733 40.9772C86.1948 40.8807 85.9956 40.8288 85.7927 40.8258C85.5897 40.8229 85.3891 40.869 85.2078 40.9603C85.0266 41.0516 84.87 41.1853 84.7516 41.35C84.6331 41.5148 84.5562 41.7058 84.5274 41.9067C84.4986 42.1076 84.5188 42.3125 84.5862 42.5039C84.6536 42.6953 84.7663 42.8676 84.9146 43.0061C85.0629 43.1446 85.2425 43.2452 85.4381 43.2994C85.6337 43.3536 85.8395 43.3597 86.0379 43.3172C85.6713 43.0403 85.1136 43.4966 85.1604 43.9529C85.2091 44.1767 85.3153 44.384 85.4685 44.5543C85.6217 44.7246 85.8166 44.852 86.034 44.924C87.1026 45.392 88.3506 45.2438 89.4543 44.8694C90.558 44.495 91.5876 43.9178 92.6835 43.52C93.7794 43.1222 95.6163 42.4007 96.7161 42.7907C97.5273 43.0754 98.0928 44.0504 98.5491 43.8359C98.7651 43.7212 98.951 43.5572 99.0919 43.3574C99.2328 43.1575 99.3247 42.9274 99.3603 42.6854C99.4214 42.1983 99.4043 41.7046 99.3096 41.2229" fill="#263238"/>
<path d="M86.0613 40.907C86.0847 40.907 86.1939 41.0981 86.4708 41.3945C86.8634 41.8116 87.3521 42.1263 87.8943 42.311C88.6893 42.6004 89.5662 42.5654 90.3357 42.2135C91.2093 41.8235 91.9542 41.0435 92.8122 40.3064C93.6093 39.562 94.6149 39.0789 95.6943 38.9219C96.1403 38.8683 96.5927 38.9169 97.017 39.0642C97.4414 39.2116 97.8266 39.4537 98.1435 39.7721C98.3467 39.9952 98.5029 40.257 98.6027 40.5417C98.7026 40.8265 98.744 41.1285 98.7246 41.4296C98.7083 41.5897 98.6716 41.7469 98.6154 41.8976C98.5686 41.999 98.5374 42.0497 98.5296 42.0458C98.579 41.8409 98.6116 41.6322 98.6271 41.4218C98.628 40.8516 98.407 40.3033 98.0109 39.893C97.7074 39.6075 97.3441 39.3932 96.9474 39.2657C96.5508 39.1382 96.1307 39.1007 95.7177 39.1559C94.6936 39.3214 93.7426 39.7901 92.9877 40.5014C92.1453 41.219 91.377 42.0224 90.4449 42.428C89.7575 42.7226 88.9935 42.7876 88.2663 42.6133C87.5391 42.4391 86.8875 42.0349 86.4084 41.4608C86.3075 41.3389 86.2175 41.2084 86.1393 41.0708C86.0769 40.9499 86.0535 40.9109 86.0613 40.907Z" fill="#455A64"/>
<path d="M100.589 48.6875C100.589 48.6875 100.48 48.6173 100.382 48.4106C100.254 48.1192 100.209 47.7978 100.253 47.4824C100.312 46.6595 101.033 45.7703 101.135 44.6315C101.198 44.1048 101.099 43.5712 100.85 43.1027C100.631 42.7318 100.297 42.4427 99.8984 42.2798C99.6275 42.1669 99.3317 42.1266 99.0404 42.1628C98.8376 42.194 98.7245 42.2447 98.7167 42.2252C98.7089 42.2057 98.8064 42.1316 99.0209 42.0653C99.332 41.9877 99.659 42.004 99.9608 42.1121C100.413 42.2674 100.798 42.5748 101.049 42.9818C101.338 43.4887 101.456 44.0757 101.384 44.6549C101.32 45.2185 101.153 45.7656 100.893 46.2695C100.681 46.6587 100.526 47.0764 100.433 47.5097C100.364 47.9091 100.418 48.32 100.589 48.6875Z" fill="#455A64"/>
<path d="M78.5069 30.3264C78.3704 30.2133 77.8868 26.0364 77.8868 26.0364L81.3968 23.9772L86.8568 25.2369L85.7609 28.2945L80.1527 31.2351L78.5069 30.3264Z" fill="#EB996E"/>
<path d="M67.6494 33.6297C67.6494 33.6297 76.4712 29.0433 82.1301 28.4427C88.413 27.7719 94.7466 31.512 94.7466 31.512L93.4947 14.9409C93.4947 14.9409 87.5862 10.53 80.0709 12.4059C73.6983 13.9971 67.3218 17.0859 67.3218 17.0859L67.6494 33.6297Z" fill="#FAFAFA"/>
<path d="M67.6494 33.6297V33.345L67.626 32.4909C67.6065 31.7109 67.5792 30.6189 67.5402 29.1954C67.4739 26.3133 67.3764 22.1754 67.2555 17.1054V17.0547L67.3023 17.0313C68.991 16.2513 70.8318 15.4401 72.813 14.6913C74.8934 13.8678 77.0153 13.1531 79.17 12.5502L80.0202 12.324L80.8977 12.1446C81.4901 12.0241 82.0891 11.9394 82.6917 11.8911C83.9298 11.8059 85.1736 11.8569 86.4006 12.0432C87.662 12.2455 88.8987 12.5801 90.09 13.0416C91.3181 13.5088 92.487 14.1188 93.5727 14.859L93.6078 14.8824V14.9331C93.6078 15.093 93.6351 15.2685 93.6468 15.4401C94.0719 21.1224 94.4814 26.5551 94.8519 31.5042V31.6797L94.6959 31.5939C92.9359 30.6248 91.0749 29.8518 89.1462 29.289C87.394 28.7713 85.5793 28.4957 83.7525 28.47C82.1318 28.4801 80.5202 28.7137 78.9633 29.1642C77.5047 29.5542 76.1865 30.0144 75.0009 30.4551C72.6375 31.3482 70.8084 32.1711 69.5604 32.7483L68.1408 33.4191L67.7781 33.5946L67.6494 33.6492L67.7703 33.579L68.1252 33.3918C68.445 33.228 68.9052 33.0018 69.537 32.6898C70.7733 32.097 72.5985 31.2546 74.9619 30.3498C76.1319 29.9013 77.4657 29.4372 78.9282 29.0355C80.496 28.5707 82.1212 28.3278 83.7564 28.314C85.606 28.3371 87.4435 28.6167 89.2164 29.1447C91.1624 29.7024 93.0397 30.4768 94.8129 31.4535L94.6725 31.5432C94.2825 26.5941 93.8925 21.1614 93.4518 15.4791L93.4128 14.9682L93.4557 15.0423C92.3838 14.3151 91.2307 13.7157 90.0198 13.2561C88.8411 12.7988 87.6176 12.4668 86.3694 12.2655C85.1498 12.0717 83.9125 12.0129 82.68 12.09C82.0856 12.1379 81.4944 12.22 80.9094 12.3357L80.0436 12.5151L79.1973 12.7374C77.0509 13.3238 74.9357 14.0189 72.8598 14.82C70.8825 15.5766 69.0378 16.38 67.3569 17.16L67.3998 17.0898C67.4817 22.1598 67.548 26.2704 67.5948 29.1408C67.6143 30.5721 67.6299 31.6914 67.6416 32.4597V33.3333C67.6533 33.54 67.6494 33.6297 67.6494 33.6297Z" fill="#263238"/>
<path d="M90.1134 26.945C90.0549 26.945 89.8209 24.1487 89.5908 20.705C89.3607 17.2613 89.2164 14.4299 89.271 14.4299C89.3256 14.4299 89.5596 17.2223 89.7936 20.6699C90.0276 24.1175 90.168 26.9411 90.1134 26.945Z" fill="#E0E0E0"/>
<path d="M87.8982 26.0753C87.8436 26.0753 87.6096 23.279 87.3795 19.8353C87.1494 16.3916 86.9894 13.5953 87.0596 13.5719C87.1298 13.5485 87.3483 16.3643 87.5784 19.8119C87.8085 23.2595 87.9567 26.0714 87.8982 26.0753Z" fill="#E0E0E0"/>
<path d="M85.7649 25.7711C85.7103 25.7711 85.4763 22.9748 85.2423 19.5311C85.0083 16.0874 84.8523 13.2677 84.9264 13.2677C85.0005 13.2677 85.215 16.0601 85.4451 19.5077C85.6752 22.9553 85.8195 25.7672 85.7649 25.7711Z" fill="#E0E0E0"/>
<path d="M81.3852 26.3834C81.3306 26.3834 81.0966 23.5871 80.8626 20.1434C80.6286 16.6997 80.4726 13.9034 80.5467 13.88C80.6208 13.8566 80.8353 16.6724 81.0654 20.12C81.2955 23.5676 81.4398 26.3795 81.3852 26.3834Z" fill="#E0E0E0"/>
<path d="M79.3455 26.945C79.2909 26.945 79.0569 24.1526 78.8268 20.705C78.5967 17.2574 78.4524 14.4299 78.507 14.4299C78.5616 14.4299 78.7956 17.2262 79.0296 20.6699C79.2636 24.1136 79.404 26.9411 79.3455 26.945Z" fill="#E0E0E0"/>
<path d="M77.1771 27.4989C77.1186 27.4989 76.8885 24.7026 76.6545 21.2589C76.4205 17.8152 76.2645 14.9955 76.3347 14.9955C76.4049 14.9955 76.6272 17.7879 76.8573 21.2355C77.0874 24.6831 77.22 27.495 77.1771 27.4989Z" fill="#E0E0E0"/>
<path d="M73.0469 29.2031C72.9884 29.2031 72.7544 26.4107 72.5243 22.9631C72.2942 19.5155 72.1343 16.7036 72.2045 16.6997C72.2747 16.6958 72.4931 19.496 72.7271 22.9397C72.9611 26.3834 73.1015 29.1992 73.0469 29.2031Z" fill="#E0E0E0"/>
<path d="M75.0204 28.2789C74.9619 28.2789 74.7318 25.4865 74.4978 22.0389C74.2638 18.5913 74.1078 15.7755 74.178 15.7716C74.2482 15.7677 74.4704 18.5679 74.7005 22.0116C74.9306 25.4553 75.075 28.2789 75.0204 28.2789Z" fill="#E0E0E0"/>
<path d="M70.7421 29.9442C70.6875 29.9442 70.4535 27.1479 70.2234 23.7042C69.9933 20.2605 69.8334 17.4642 69.9036 17.4408C69.9738 17.4174 70.1922 20.2332 70.4262 23.6808C70.6602 27.1284 70.8006 29.9403 70.7421 29.9442Z" fill="#E0E0E0"/>
<path d="M83.5146 25.8336C83.46 25.8336 83.226 23.0373 82.992 19.5936C82.758 16.1499 82.602 13.3341 82.6761 13.3302C82.7502 13.3263 82.9647 16.1226 83.1948 19.5702C83.4249 23.0178 83.5692 25.8297 83.5146 25.8336Z" fill="#E0E0E0"/>
<path d="M86.4513 25.9661C86.9093 25.732 87.3938 25.5539 87.8943 25.4357C88.8069 25.151 90.0822 24.7766 91.5252 24.3788L91.4667 24.7415L90.8973 24.3827C88.0971 22.6472 85.488 21.9374 85.527 21.8165C85.527 21.7658 86.2056 21.8828 87.2469 22.2065C88.5984 22.663 89.8937 23.2714 91.1079 24.02C91.3107 24.1409 91.4979 24.2696 91.689 24.3905C91.7209 24.4122 91.746 24.4426 91.7612 24.478C91.7765 24.5134 91.7813 24.5524 91.7752 24.5905C91.769 24.6286 91.7522 24.6641 91.7265 24.6929C91.7009 24.7217 91.6676 24.7427 91.6305 24.7532C90.1836 25.1432 88.9005 25.463 87.9645 25.6814C87.474 25.8391 86.9656 25.9347 86.4513 25.9661Z" fill="#92E3A9"/>
<path d="M88.6041 25.5215C88.4949 25.5215 88.3116 24.6089 88.2141 23.4623C88.1166 22.3157 88.0971 21.3719 88.2141 21.3602C88.3311 21.3485 88.5066 22.2689 88.6041 23.4194C88.7016 24.5699 88.7172 25.5098 88.6041 25.5215Z" fill="#92E3A9"/>
<path d="M91.689 24.7845C91.689 24.7845 91.7358 24.8547 91.7787 25.0107C91.832 25.244 91.8171 25.4877 91.7358 25.7127C91.6001 26.0684 91.3611 26.3754 91.0494 26.5941C90.8644 26.7354 90.6643 26.8558 90.4527 26.9529C90.2132 27.0592 89.9618 27.1365 89.7039 27.183C89.1133 27.2953 88.5055 27.2793 87.9216 27.1362C87.5968 27.0603 87.2786 26.9586 86.97 26.832C86.4426 26.6401 85.9582 26.346 85.5446 25.9665C85.131 25.587 84.7964 25.1297 84.5598 24.6207C84.1483 23.8875 84.0101 23.0321 84.1698 22.2066C84.2711 21.7686 84.5256 21.3813 84.8874 21.1146C85.236 20.8759 85.6377 20.7259 86.0574 20.6778C87.0702 20.5457 88.0998 20.681 89.0441 21.0704C89.9883 21.4597 90.8141 22.0894 91.4394 22.8969C91.959 23.5849 92.2691 24.4082 92.3325 25.2681C92.3778 25.5766 92.3699 25.8905 92.3091 26.1963C92.2487 25.896 92.2045 25.5927 92.1765 25.2876C92.0587 24.4777 91.726 23.7142 91.2132 23.0763C90.446 22.1381 89.3949 21.4744 88.218 21.1848C87.5328 21.0103 86.8202 20.9706 86.1198 21.0678C85.7636 21.1184 85.4243 21.252 85.1292 21.4578C84.8441 21.6679 84.6446 21.974 84.5676 22.3197C84.4328 23.0521 84.5598 23.8086 84.9264 24.4569C85.2291 25.0915 85.6831 25.6419 86.2485 26.0598C87.2439 26.7413 88.4497 27.0455 89.6493 26.9178C90.1031 26.8549 90.5359 26.6867 90.9129 26.4264C91.2026 26.2421 91.436 25.9817 91.5876 25.6737C91.6723 25.473 91.7097 25.2555 91.6968 25.038C91.677 24.9549 91.6744 24.8687 91.689 24.7845Z" fill="#92E3A9"/>
<path d="M82.8321 31.9058L84.591 30.4823C85.3601 29.8614 85.8591 28.967 85.9833 27.9863L86.0808 27.2375L80.7963 26.1689C80.7963 26.1689 80.301 27.7679 82.29 28.1657C80.5272 28.9457 79.8681 30.5057 79.3845 32.2568L82.8321 31.9058Z" fill="#EB996E"/>
<path d="M80.652 29.5151C80.6793 29.5151 80.7924 29.2967 81.1122 29.0042C81.5513 28.5948 82.1266 28.3628 82.7268 28.3529H83.2923L82.7619 28.154L81.5295 27.6899H81.5529C81.3061 27.5596 81.1016 27.3616 80.9635 27.1191C80.8253 26.8766 80.7592 26.5998 80.7729 26.321C80.777 26.2788 80.7848 26.2371 80.7963 26.1962L80.6481 26.2781C82.1301 26.6447 83.4717 26.9528 84.4545 27.1205C84.9459 27.2063 85.3437 27.2648 85.6245 27.2921C85.767 27.3205 85.9127 27.3284 86.0574 27.3155C85.5446 27.1645 85.0238 27.0421 84.4974 26.9489C83.5302 26.7383 82.1964 26.4029 80.7144 26.0324L80.6013 26.0051L80.5662 26.1143C80.5489 26.1716 80.5372 26.2303 80.5311 26.2898C80.491 26.6275 80.5711 26.9686 80.7573 27.2531C80.926 27.5122 81.1514 27.7296 81.4164 27.8888L82.6566 28.3178L82.6917 28.115C82.0457 28.1421 81.4363 28.4223 80.9952 28.895C80.8276 29.0675 80.7091 29.2815 80.652 29.5151Z" fill="#D1734A"/>
<path d="M93.1242 173.086L100.71 113.026L99.255 103.923H84.0177L82.2003 171.99C82.1927 172.251 82.278 172.505 82.4408 172.709C82.6037 172.912 82.8336 173.052 83.0895 173.101L91.4199 174.385C91.6176 174.415 91.8193 174.405 92.013 174.355C92.2067 174.306 92.3885 174.218 92.5476 174.097C92.7066 173.976 92.8396 173.824 92.9387 173.65C93.0377 173.476 93.1008 173.284 93.1242 173.086Z" fill="#263238"/>
<path d="M100.491 115.05L114.289 128.7L94.4385 133.524L95.8503 143.52L122.717 139.866C123.854 139.711 124.947 139.326 125.931 138.735C126.915 138.145 127.768 137.36 128.439 136.43C129.453 135.021 130.01 133.334 130.033 131.598C130.056 129.863 129.544 128.162 128.567 126.727L107.64 96.014L98.28 99.0599L100.491 115.05Z" fill="#263238"/>
<path d="M99.7308 111.563C99.9546 112.116 100.116 112.691 100.211 113.279C100.371 113.853 100.465 114.443 100.491 115.038C100.268 114.486 100.107 113.91 100.012 113.322C99.8515 112.749 99.7573 112.158 99.7308 111.563Z" fill="#455A64"/>
<path d="M97.7223 134.78C97.7223 134.78 97.8315 134.737 98.0499 134.671L99.0132 134.371L102.718 133.243L116.189 129.191L116.154 129.32L99.5904 111.688L99.7659 111.63C99.4344 114.403 99.0951 117.292 98.7441 120.245C97.0359 134.55 95.433 147.494 94.1889 156.854C93.5727 161.534 93.0189 165.313 92.6289 167.922C92.4066 169.225 92.2623 170.239 92.1102 170.917L91.9464 171.697C91.9074 171.869 91.884 171.959 91.884 171.959C91.8937 171.868 91.9081 171.779 91.9269 171.69C91.9581 171.51 92.0088 171.253 92.0712 170.91C92.2077 170.231 92.3403 169.213 92.5509 167.911C92.9409 165.298 93.444 161.515 94.0446 156.835C95.2497 147.475 96.8292 134.527 98.5374 120.221C98.8884 117.269 99.2316 114.371 99.5631 111.606L99.5865 111.392L99.7347 111.548L116.263 129.215L116.349 129.308L116.228 129.343L102.738 133.329L99.0249 134.413L98.0499 134.694L97.7223 134.78Z" fill="#455A64"/>
<path d="M93.2568 171.955C93.1983 171.955 94.7739 159.198 96.7668 143.485C98.7597 127.772 100.429 115.015 100.484 115.038C100.538 115.062 98.9664 127.787 96.9735 143.508C94.9806 159.229 93.3114 171.959 93.2568 171.955Z" fill="#455A64"/>
<path d="M98.2527 105.206C98.3947 105.504 98.502 105.816 98.5725 106.138C98.7402 106.719 98.9625 107.535 99.1497 108.439C99.3369 109.344 99.4929 110.171 99.5826 110.779C99.6512 111.101 99.6839 111.429 99.6801 111.758C99.5679 111.45 99.4881 111.131 99.4422 110.807C99.3018 110.14 99.1341 109.356 98.9508 108.49L98.4321 106.181C98.3404 105.863 98.2803 105.536 98.2527 105.206Z" fill="#455A64"/>
<path d="M99.138 104.029C99.138 104.029 99.333 103.841 99.6996 103.97C99.8067 104.008 99.9018 104.074 99.9751 104.161C100.048 104.248 100.097 104.353 100.117 104.465C100.143 104.604 100.128 104.748 100.072 104.878C100.017 105.008 99.9236 105.118 99.8049 105.195C99.6821 105.262 99.542 105.29 99.4028 105.276C99.2636 105.262 99.1319 105.207 99.0249 105.117C98.9367 105.042 98.8726 104.943 98.8406 104.832C98.8087 104.721 98.8104 104.603 98.8455 104.493C98.8829 104.349 98.9753 104.226 99.1029 104.149C99.1926 104.099 99.2511 104.099 99.255 104.111C99.2589 104.122 99.0444 104.22 98.982 104.528C98.9646 104.609 98.9704 104.694 98.9986 104.773C99.0269 104.851 99.0765 104.921 99.1419 104.972C99.2214 105.036 99.3177 105.074 99.4189 105.083C99.5202 105.092 99.6218 105.071 99.7113 105.023C99.7958 104.965 99.8625 104.885 99.9038 104.791C99.9452 104.698 99.9595 104.594 99.9453 104.493C99.9325 104.409 99.8991 104.329 99.8481 104.261C99.7971 104.193 99.7299 104.138 99.6528 104.103C99.4894 104.038 99.313 104.013 99.138 104.029Z" fill="#455A64"/>
<path d="M118.349 131.04C118.31 131.087 117.53 130.373 116.399 129.73C115.268 129.086 114.282 128.755 114.297 128.696C115.855 129.033 117.268 129.851 118.334 131.036L118.349 131.04Z" fill="#455A64"/>
<path d="M83.7992 103.74L82.4576 79.868C82.4576 79.868 80.4569 71.2685 78.7292 67.8131L87.8513 61.1285L90.2148 62.2634L94.8948 66.5183L99.6294 63.7532C99.6294 63.7532 105.3 66.14 106.794 67.037C108.287 67.934 108.584 70.3208 108.584 70.3208C108.584 70.3208 103.666 78.9866 103.514 82.3874C103.362 85.7882 108.432 94.4774 108.432 94.4774C108.432 94.4774 111.205 95.3003 111.361 97.5311C111.497 99.4616 110.6 100.152 110.6 100.152C110.6 100.152 110.21 98.0537 107.39 98.9507C104.571 99.8477 98.6699 105.07 94.4384 105.218C90.2069 105.366 83.7992 103.74 83.7992 103.74Z" fill="#92E3A9"/>
<path d="M108.334 69.303L111.93 84.045L116.017 74.295L121.813 77.805C121.813 77.805 116.353 97.2309 110.939 95.3199C110.939 95.3199 107.57 93.6156 107.156 92.4066C106.743 91.1976 100.495 82.3875 100.495 82.3875L108.334 69.303Z" fill="#92E3A9"/>
<path d="M108.42 94.4775C108.42 94.4775 108.369 94.4229 108.295 94.3137L107.968 93.834C107.827 93.6234 107.652 93.366 107.476 93.054C107.301 92.742 107.086 92.3949 106.879 91.9854C106.673 91.5759 106.439 91.143 106.232 90.6516C106.025 90.1602 105.803 89.6337 105.592 89.0721C105.159 87.8436 104.823 86.5825 104.59 85.3008C104.375 84.0116 104.259 82.7077 104.243 81.4008C104.243 80.8002 104.243 80.2308 104.286 79.6965C104.329 79.1622 104.368 78.6708 104.411 78.2184C104.516 77.3175 104.629 76.5921 104.738 76.0968C104.785 75.8706 104.824 75.6795 104.859 75.5274C104.867 75.46 104.886 75.3942 104.914 75.3324C104.923 75.3997 104.923 75.4679 104.914 75.5352C104.89 75.6912 104.863 75.8823 104.832 76.1124C104.75 76.6116 104.656 77.337 104.571 78.234C104.536 78.6825 104.481 79.1739 104.473 79.7043C104.465 80.2347 104.442 80.8002 104.446 81.3969C104.474 82.6897 104.595 83.9787 104.809 85.254C105.037 86.5255 105.364 87.7773 105.787 88.998C105.99 89.5557 106.177 90.09 106.404 90.558C106.63 91.026 106.825 91.4862 107.02 91.8957C107.215 92.3052 107.41 92.6523 107.589 92.9682C107.769 93.2841 107.921 93.5493 108.049 93.7677L108.342 94.2708C108.376 94.3365 108.402 94.4059 108.42 94.4775Z" fill="#263238"/>
<path d="M77.1654 29.1368C77.1654 29.1368 68.0394 44.4716 67.4154 46.7336C66.7602 49.0736 79.4313 69.1157 79.4313 69.1157C79.4313 69.1157 79.677 69.7592 79.6809 69.7553L88.7367 62.5208L78.0624 47.4161L83.7993 32.3309L77.1654 29.1368Z" fill="#92E3A9"/>
<path d="M78.4329 48.0284C78.4017 48.0518 78.2106 47.7788 77.8089 47.4356C77.2833 46.9921 76.6631 46.6747 75.9959 46.5077C75.3287 46.3408 74.6322 46.3287 73.9596 46.4723C73.4448 46.5854 73.1445 46.7375 73.1289 46.7024C73.3577 46.5176 73.6238 46.3846 73.9089 46.3124C74.2172 46.2229 74.5357 46.1731 74.8566 46.1642C75.2506 46.1558 75.6439 46.1991 76.0266 46.2929C76.4072 46.3929 76.774 46.5396 77.1186 46.7297C77.401 46.8899 77.6629 47.0837 77.8986 47.3069C78.1273 47.5055 78.3097 47.7518 78.4329 48.0284Z" fill="#263238"/>
<path d="M82.5786 70.3559C82.5396 70.3559 82.5591 69.8216 82.4148 68.9831C82.3264 68.4905 82.1959 68.0065 82.0248 67.5362C81.6181 66.3786 80.9783 65.3167 80.145 64.4162C79.8051 64.0525 79.4359 63.7173 79.0412 63.4139C78.3587 62.8991 77.8713 62.6651 77.8986 62.6339C78.0202 62.6663 78.1369 62.7149 78.2457 62.7782C78.3798 62.839 78.51 62.908 78.6357 62.9849C78.8048 63.0816 78.9688 63.1871 79.1271 63.3008C79.5479 63.5928 79.9397 63.9245 80.2971 64.2914C80.7249 64.7454 81.1052 65.242 81.432 65.7734C81.7503 66.3088 82.0117 66.8761 82.212 67.466C82.3727 67.9481 82.4876 68.4443 82.5551 68.948C82.5818 69.1407 82.5987 69.3347 82.6058 69.5291C82.6174 69.6758 82.6174 69.8231 82.6058 69.9698C82.6176 70.0991 82.6084 70.2295 82.5786 70.3559Z" fill="#263238"/>
<path d="M107.359 94.9221C107.359 94.9455 107.075 94.9221 106.579 94.9533C105.872 95.024 105.18 95.2042 104.528 95.4876C103.563 95.9148 102.656 96.4598 101.825 97.11C100.874 97.8276 99.8751 98.7012 98.7402 99.489C97.677 100.267 96.4585 100.807 95.1678 101.072C94.1122 101.259 93.0332 101.271 91.9737 101.107C91.2622 101.004 90.5614 100.836 89.8794 100.608C89.6376 100.526 89.4543 100.456 89.3295 100.405C89.2657 100.383 89.2042 100.355 89.1462 100.32C89.402 100.376 89.6546 100.447 89.9028 100.53C90.5863 100.729 91.2838 100.875 91.9893 100.967C93.0271 101.105 94.0802 101.077 95.1093 100.885C96.3771 100.621 97.5739 100.089 98.6193 99.3252C99.7503 98.5452 100.741 97.6755 101.708 96.9618C102.555 96.3091 103.483 95.769 104.469 95.355C105.138 95.0769 105.849 94.9146 106.571 94.8753C106.766 94.8637 106.962 94.8637 107.156 94.8753C107.226 94.8827 107.294 94.8984 107.359 94.9221Z" fill="#263238"/>
<path d="M111.563 90.8114C111.442 90.497 111.362 90.1678 111.325 89.8325C111.2 89.0278 111.16 88.2121 111.205 87.3989C111.251 86.5855 111.382 85.7791 111.595 84.9926C111.666 84.6627 111.781 84.3439 111.938 84.0449C111.891 84.3764 111.823 84.7047 111.735 85.0277C111.569 85.8128 111.463 86.6094 111.419 87.4106C111.376 88.2118 111.397 89.0151 111.481 89.813C111.532 90.1435 111.559 90.4771 111.563 90.8114Z" fill="#263238"/>
<g opacity="0.3">
<path d="M89.5285 100.23C89.5597 99.255 90.7219 98.6973 91.6969 98.7558C92.6719 98.8143 93.5962 99.255 94.5712 99.2901C96.2248 99.3525 97.6912 98.2683 98.9548 97.2153C100.218 96.1623 101.622 95.0274 103.276 94.9611C103.483 94.9611 103.744 94.9962 103.802 95.199C103.861 95.4018 103.701 95.5539 103.561 95.6787C101.525 97.4961 99.4422 99.3486 96.9306 100.413C94.419 101.478 91.3575 101.646 89.076 100.152" fill="black"/>
</g>
<g opacity="0.3">
<path d="M104.731 76.5765C104.456 81.3498 106.008 86.0488 109.071 89.7195C109.582 90.324 110.148 90.9207 110.397 91.6695C110.647 92.4183 110.479 93.3855 109.785 93.7677C109.482 93.9053 109.146 93.9506 108.818 93.8978C108.49 93.8451 108.184 93.6967 107.94 93.4713C107.458 93.0141 107.082 92.4562 106.84 91.8372C104.539 86.9154 103.401 81.2331 104.89 76.0071" fill="black"/>
</g>
<path d="M59.748 155.384C60.138 154.073 60.9375 152.81 62.1894 152.264C63.4413 151.718 64.9974 152.022 66.3312 152.505C67.665 152.989 68.9715 153.64 70.3872 153.726C71.8029 153.812 73.398 153.141 73.8231 151.776C74.2131 150.501 73.4526 149.148 72.4932 148.223C71.4793 147.247 70.2359 146.541 68.8776 146.172C67.5194 145.802 66.0899 145.781 64.7211 146.109C63.3523 146.438 62.0882 147.105 61.0452 148.051C60.0023 148.996 59.2142 150.189 58.7535 151.519" fill="#92E3A9"/>
<g opacity="0.5">
<path d="M59.748 155.384C60.138 154.073 60.9375 152.81 62.1894 152.264C63.4413 151.718 64.9974 152.022 66.3312 152.505C67.665 152.989 68.9715 153.64 70.3872 153.726C71.8029 153.812 73.398 153.141 73.8231 151.776C74.2131 150.501 73.4526 149.148 72.4932 148.223C71.4793 147.247 70.2359 146.541 68.8776 146.172C67.5194 145.802 66.0899 145.781 64.7211 146.109C63.3523 146.438 62.0882 147.105 61.0452 148.051C60.0023 148.996 59.2142 150.189 58.7535 151.519" fill="black"/>
</g>
<path d="M48.5394 161.07C46.4607 159.1 46.566 155.665 47.5995 152.997C48.633 150.329 50.8989 148.278 53.4222 146.925C55.8869 145.631 58.6126 144.912 61.3947 144.822C64.1769 144.733 66.9432 145.274 69.4863 146.406C68.241 146.459 67.0278 146.817 65.9528 147.448C64.8779 148.079 63.974 148.964 63.3204 150.025C62.1855 151.917 61.932 154.21 60.9804 156.203C59.9211 158.45 58.0417 160.206 55.7282 161.111C53.4146 162.016 50.8423 162.002 48.5394 161.07Z" fill="#92E3A9"/>
<path d="M47.5411 149.218C45.244 146.507 44.9359 142.151 45.2752 138.61C45.6145 135.069 46.4452 131.508 45.8758 127.998C45.5443 125.915 44.737 123.93 44.464 121.84C44.191 119.749 44.5771 117.39 46.1956 116.041C48.0559 114.481 50.9848 114.871 52.9231 116.314C54.8614 117.757 55.9768 120.054 56.7958 122.331C58.5976 127.339 59.2606 132.889 57.7786 137.998C56.2966 143.107 52.8295 147.677 47.74 149.218" fill="#92E3A9"/>
<path d="M46.4374 171.479C46.4288 171.375 46.4288 171.271 46.4374 171.167C46.4374 170.964 46.4374 170.66 46.4374 170.27C46.4686 169.49 46.5427 168.367 46.7182 166.986C46.9208 165.367 47.2151 163.76 47.5996 162.174C48.0775 160.226 48.8161 158.351 49.7953 156.601C50.7781 154.853 51.9842 153.24 53.3833 151.804C54.5224 150.632 55.7841 149.586 57.1468 148.684C57.7201 148.294 58.2738 147.985 58.7535 147.705C59.2332 147.424 59.67 147.237 60.021 147.069L60.8479 146.722C60.942 146.677 61.0399 146.641 61.1404 146.613C61.0513 146.667 60.9588 146.715 60.8635 146.757L60.0522 147.147C59.709 147.326 59.2723 147.537 58.8043 147.81C58.3363 148.083 57.7864 148.407 57.2209 148.808C54.2243 150.849 51.7403 153.554 49.963 156.714C47.8492 160.411 47.2681 164.299 46.843 167.021C46.6519 168.398 46.5544 169.517 46.5037 170.293C46.4803 170.683 46.4647 170.968 46.453 171.187C46.4551 171.284 46.4499 171.382 46.4374 171.479Z" fill="#263238"/>
<path d="M26.6136 138.516C22.3587 141.082 22.3743 143.419 23.1036 145.622C23.8329 147.826 26.4225 149.358 28.587 148.531C29.8077 148.063 30.6969 147.003 31.4535 145.934C32.2101 144.865 32.9199 143.723 33.9807 142.954C35.0415 142.186 36.5781 141.894 37.6428 142.654" fill="#92E3A9"/>
<g opacity="0.5">
<path d="M26.6136 138.516C22.3587 141.082 22.3743 143.419 23.1036 145.622C23.8329 147.826 26.4225 149.358 28.587 148.531C29.8077 148.063 30.6969 147.003 31.4535 145.934C32.2101 144.865 32.9199 143.723 33.9807 142.954C35.0415 142.186 36.5781 141.894 37.6428 142.654" fill="black"/>
</g>
<path d="M23.4273 141.328C24.5388 139.792 27.2883 139.347 29.0199 140.115C30.7515 140.884 32.0268 142.401 33.15 143.91C34.2732 145.419 35.3925 147.03 36.9681 148.087C38.5437 149.144 40.7433 149.526 42.315 148.477C42.8151 148.104 43.2338 147.632 43.5456 147.092C43.8574 146.552 44.0558 145.953 44.1285 145.333C44.2677 144.092 44.1832 142.836 43.8789 141.625C43.4889 139.842 42.8922 137.978 41.4648 136.847C39.8736 135.584 37.6662 135.525 35.6382 135.591C33.2982 135.665 30.9582 135.841 28.7586 136.648C26.559 137.456 24.3399 139.199 23.4117 141.328" fill="#92E3A9"/>
<path d="M42.9 168.09C42.895 168.059 42.895 168.027 42.9 167.996C42.9 167.922 42.9 167.833 42.9 167.723C42.9 167.466 42.9 167.111 42.8649 166.666C42.8376 165.734 42.7986 164.412 42.7518 162.786C42.705 161.16 42.6348 159.194 42.5139 157.033C42.393 154.873 42.2331 152.49 41.9055 150.013C41.7662 148.81 41.5302 147.619 41.1996 146.453C40.5419 144.39 39.534 142.456 38.22 140.735C37.6723 140.034 37.0712 139.375 36.4221 138.766C35.4748 137.889 34.4022 137.158 33.2397 136.597C33.033 136.5 32.8497 136.406 32.6898 136.34L32.2725 136.18L32.019 136.079L31.9332 136.036L32.0268 136.059L32.2881 136.145L32.7093 136.289C32.877 136.348 33.0603 136.438 33.2709 136.527C34.4553 137.07 35.5496 137.791 36.5157 138.664C37.1772 139.274 37.7888 139.935 38.3448 140.642C38.9758 141.457 39.5355 142.324 40.0179 143.235C40.5553 144.24 40.9991 145.292 41.3439 146.379C41.6797 147.556 41.9184 148.758 42.0576 149.974C42.3891 152.459 42.5451 154.842 42.6543 156.994C42.7635 159.147 42.8181 161.113 42.8532 162.755C42.8883 164.397 42.8961 165.723 42.9039 166.655V167.7C42.9039 167.813 42.9039 167.903 42.9039 167.977C42.9076 168.015 42.9063 168.053 42.9 168.09Z" fill="#263238"/>
<path d="M44.4327 169.997C44.2307 169.4 44.0755 168.789 43.9686 168.168C43.6724 166.475 43.6068 164.75 43.7736 163.039C44.0344 160.51 44.5773 158.018 45.3921 155.61C46.2657 152.88 47.4513 149.947 48.4614 146.804C48.9608 145.276 49.3684 143.72 49.6821 142.143C49.9629 140.673 50.1647 139.189 50.2866 137.697C50.4806 135.168 50.5262 132.63 50.4231 130.096C50.349 127.928 50.232 126.177 50.1618 124.968L50.0799 123.575C50.0799 123.423 50.0799 123.302 50.0799 123.213C50.0748 123.171 50.0748 123.129 50.0799 123.088C50.0834 123.128 50.0834 123.169 50.0799 123.209C50.0799 123.302 50.0994 123.419 50.115 123.571C50.1436 123.904 50.1826 124.368 50.232 124.964C50.3256 126.173 50.4621 127.924 50.5518 130.092C50.675 132.632 50.6437 135.177 50.4582 137.713C50.3407 139.211 50.1415 140.702 49.8615 142.178C49.5487 143.761 49.141 145.324 48.6408 146.858C47.6229 150.013 46.4334 152.935 45.5559 155.661C44.7354 158.063 44.1809 160.548 43.9023 163.071C43.7269 164.771 43.7715 166.487 44.0349 168.176C44.1402 168.772 44.2377 169.233 44.3196 169.541C44.3547 169.689 44.3859 169.806 44.4054 169.892C44.4184 169.926 44.4276 169.961 44.4327 169.997Z" fill="#263238"/>
<path d="M54.9745 171.916H35.0065L34.5502 168.074H54.9745V171.916Z" fill="#455A64"/>
<path d="M37.1515 171.479L39.6475 183.011H50.4973L52.8334 171.479H37.1515Z" fill="#455A64"/>
<path d="M54.9901 171.916C54.9901 171.971 50.6026 172.002 45.1855 171.986C39.7684 171.97 35.3809 171.916 35.3809 171.861C35.3809 171.807 39.7723 171.779 45.1894 171.795C50.6065 171.811 54.9901 171.865 54.9901 171.916Z" fill="#455A64"/>
<path d="M51.5502 177.61C51.0069 177.203 50.4163 176.864 49.7913 176.6C49.1084 176.332 48.3836 176.187 47.6502 176.171C46.7522 176.174 45.862 176.338 45.0216 176.654C44.1129 176.962 43.2627 177.321 42.4359 177.516C41.7002 177.676 40.9412 177.699 40.1973 177.582C39.6972 177.512 39.2122 177.359 38.7621 177.13C38.6402 177.066 38.524 176.992 38.415 176.908C38.3409 176.853 38.3019 176.822 38.3058 176.814C38.3097 176.806 38.4774 176.916 38.7933 177.064C39.246 177.263 39.7257 177.395 40.2168 177.454C40.9441 177.547 41.682 177.511 42.3969 177.348C43.1964 177.15 44.0466 176.787 44.9631 176.479C45.8244 176.155 46.7379 175.992 47.658 175.999C48.409 176.026 49.1488 176.189 49.842 176.479C50.307 176.673 50.7438 176.929 51.1407 177.239C51.2497 177.322 51.3539 177.41 51.4527 177.505C51.519 177.567 51.5541 177.602 51.5502 177.61Z" fill="#263238"/>
<path d="M51.3981 178.378C50.8736 177.985 50.3072 177.652 49.7094 177.384C49.0538 177.116 48.3543 176.972 47.6463 176.959C46.7786 176.961 45.918 177.116 45.1035 177.415C44.2221 177.711 43.3992 178.051 42.6114 178.265C41.9124 178.465 41.1847 178.547 40.4586 178.507C39.9679 178.473 39.4891 178.34 39.0507 178.117C38.9333 178.055 38.8211 177.983 38.7153 177.902C38.6412 177.848 38.6061 177.817 38.61 177.813C38.6139 177.809 38.7777 177.91 39.0819 178.051C39.5219 178.237 39.9926 178.342 40.4703 178.359C41.1776 178.381 41.8837 178.288 42.5607 178.082C43.3407 177.867 44.1519 177.52 45.045 177.224C45.8793 176.918 46.7617 176.765 47.6502 176.771C48.3774 176.794 49.0936 176.955 49.7601 177.247C50.2076 177.443 50.6272 177.698 51.0081 178.004C51.1126 178.084 51.2116 178.171 51.3045 178.265C51.3708 178.339 51.402 178.374 51.3981 178.378Z" fill="white"/>
<path d="M51.7452 176.845C51.1858 176.423 50.58 176.066 49.9395 175.781C49.2445 175.481 48.5031 175.303 47.7477 175.254C46.8151 175.23 45.887 175.392 45.0177 175.73C44.1417 176.072 43.2472 176.365 42.3384 176.608C41.5729 176.737 40.7912 176.737 40.0257 176.608C39.5109 176.525 39.0113 176.366 38.5437 176.136C38.4184 176.071 38.2984 175.997 38.1849 175.913C38.1069 175.855 38.0679 175.824 38.0718 175.816C38.0757 175.808 38.2473 175.921 38.5749 176.069C39.0473 176.263 39.5428 176.394 40.0491 176.459C40.7979 176.567 41.5591 176.552 42.3033 176.416C43.202 176.167 44.0871 175.872 44.9553 175.531C45.8419 175.187 46.7893 175.026 47.7399 175.059C48.5133 175.117 49.2701 175.312 49.9746 175.636C50.4507 175.848 50.8987 176.118 51.3084 176.44C51.4203 176.526 51.5271 176.618 51.6282 176.717C51.7179 176.803 51.7491 176.838 51.7452 176.845Z" fill="white"/>
<path d="M55.1538 171.935C55.1538 171.986 50.661 172.029 45.1191 172.029C39.5772 172.029 35.1 171.99 35.1 171.935C35.1 171.881 39.5928 171.838 45.1308 171.838C50.6688 171.838 55.1538 171.881 55.1538 171.935Z" fill="#263238"/>
<path d="M159.448 78.2926C159.263 78.0676 159.111 77.8166 158.999 77.5477C158.734 77.0446 158.356 76.2958 157.876 75.3247C156.917 73.3747 155.536 70.555 153.875 67.0255C150.521 59.9665 145.907 50.1151 140.759 38.9845H141.679C140.977 40.6186 140.228 42.3385 139.526 44.1091C138.259 47.2291 137.101 50.3491 136.079 53.3521C135.548 54.8575 135.084 56.3512 134.609 57.8098C134.133 59.2684 133.715 60.7114 133.318 62.0998C131.703 67.7314 130.51 72.8755 129.64 77.224C128.77 81.5725 128.216 85.1176 127.834 87.5707C127.643 88.7992 127.514 89.7547 127.401 90.3982C127.37 90.732 127.298 91.0608 127.187 91.3771C127.141 91.0446 127.141 90.7073 127.187 90.3748C127.234 89.7235 127.3 88.7563 127.429 87.52C127.69 85.0474 128.142 81.475 128.922 77.0914C129.702 72.7078 130.829 67.5208 132.405 61.8463C132.795 60.4267 133.232 58.9798 133.673 57.5017C134.113 56.0236 134.597 54.526 135.123 53.0128C136.141 49.9747 137.3 46.8625 138.571 43.7074C139.281 41.929 140.037 40.1974 140.743 38.5594C140.77 38.4987 140.808 38.4437 140.855 38.3976C140.903 38.3516 140.959 38.3154 141.02 38.2911C141.082 38.2669 141.148 38.255 141.214 38.2562C141.28 38.2574 141.346 38.2716 141.406 38.2981C141.52 38.3457 141.61 38.4351 141.66 38.5477C146.784 49.69 151.285 59.6077 154.475 66.7252C156.07 70.2937 157.342 73.168 158.196 75.157C158.621 76.1515 158.945 76.9237 159.155 77.4502C159.292 77.7157 159.391 77.9993 159.448 78.2926Z" fill="#92E3A9"/>
<path d="M152.919 61.4914C152.993 61.7644 145.653 63.9952 136.539 66.4756C127.425 68.956 119.948 70.7656 119.874 70.477C119.8 70.1884 127.14 67.9732 136.274 65.4928C145.408 63.0124 152.845 61.2301 152.919 61.4914Z" fill="#92E3A9"/>
<path d="M147.81 30.4747C147.955 30.3649 148.114 30.2744 148.282 30.2056L148.879 29.9092C149.12 29.8 149.413 29.6947 149.741 29.566C150.556 29.2657 151.399 29.0424 152.256 28.8991C153.434 28.7218 154.631 28.7087 155.813 28.8601C157.295 29.0691 158.733 29.5169 160.072 30.1861C161.652 30.9999 163.112 32.0274 164.412 33.2398C165.904 34.6279 167.229 36.184 168.363 37.8769C168.675 38.3315 168.952 38.8086 169.194 39.3043C169.443 39.7996 169.705 40.2988 169.954 40.8097L170.625 42.4087C170.859 42.9469 171.015 43.5163 171.218 44.0818C171.986 46.4731 172.465 48.9476 172.645 51.4528C172.829 54.1634 172.732 56.8857 172.357 59.5765C171.952 62.4495 171.336 65.2887 170.512 68.0707C170.317 68.7922 170.071 69.502 169.853 70.2274C169.634 70.9528 169.338 71.6704 169.073 72.3997C168.757 73.1056 168.464 73.8271 168.117 74.533L167.575 75.5821L167.306 76.1086L167.002 76.6195C165.361 79.4255 163.398 82.0301 161.152 84.3805C158.818 86.8272 156.238 89.0267 153.453 90.9442C150.591 92.9662 147.501 94.6431 144.245 95.9401C140.855 97.2919 137.228 97.9484 133.579 97.8706C131.725 97.813 129.892 97.4534 128.154 96.8059C126.425 96.157 124.846 95.1632 123.513 93.8848C122.855 93.2612 122.256 92.5784 121.723 91.8451C121.193 91.1242 120.718 90.3641 120.303 89.5714C119.486 88.0172 118.832 86.382 118.353 84.6925C116.601 78.2774 116.25 71.5603 117.324 64.9975C117.81 61.955 118.563 58.9613 119.574 56.0509C119.703 55.6999 119.827 55.3489 119.964 54.9979C120.1 54.6469 120.214 54.2998 120.354 53.9605C120.637 53.2819 120.918 52.6072 121.196 51.9364L122.125 49.9864C122.421 49.3351 122.788 48.7267 123.111 48.1027C124.404 45.7219 125.881 43.4464 127.53 41.2972L128.115 40.5172L128.727 39.7762C129.141 39.2887 129.531 38.7934 129.948 38.3293L131.2 36.9643C131.59 36.5041 132.058 36.1024 132.475 35.6773C133.31 34.8232 134.215 34.0822 135.057 33.3373L136.375 32.2921L137.023 31.7812L137.686 31.3132L138.988 30.4006L140.295 29.5816L140.93 29.1916L141.578 28.8289L142.841 28.1308C143.68 27.694 144.511 27.304 145.302 26.9218C146.094 26.5396 146.886 26.2354 147.642 25.9351L149.822 25.1278L151.827 24.4882C154.378 23.7355 156.39 23.287 157.763 23.0257C158.449 22.9009 158.976 22.8073 159.323 22.7527C159.498 22.7071 159.68 22.6874 159.861 22.6942C159.695 22.7678 159.521 22.8215 159.342 22.8541C158.995 22.9438 158.476 23.0686 157.782 23.2246C156.429 23.5522 154.436 24.0592 151.932 24.8665L149.959 25.5451L147.81 26.368C147.069 26.68 146.312 27.031 145.513 27.382C144.713 27.733 143.926 28.162 143.103 28.6144L141.866 29.3242L141.231 29.6869L140.607 30.0769L139.327 30.8998L138.06 31.8319L137.413 32.2999L136.781 32.8069L135.494 33.8482C134.671 34.6048 133.789 35.3419 132.978 36.1882C132.569 36.6094 132.124 37.0072 131.73 37.4635C131.336 37.9198 130.919 38.3605 130.51 38.8207C130.1 39.2809 129.73 39.7762 129.32 40.2559L128.719 40.993L128.15 41.773C126.54 43.9005 125.099 46.1512 123.841 48.5044C123.525 49.1206 123.17 49.7212 122.881 50.3608L121.98 52.2874L121.165 54.2842C121.021 54.6157 120.896 54.9589 120.775 55.306L120.412 56.3434C119.44 59.2042 118.719 62.1442 118.256 65.1301C117.766 68.2702 117.596 71.4521 117.749 74.6266C117.896 77.933 118.419 81.212 119.309 84.4C119.77 86.0202 120.398 87.5885 121.181 89.08C121.575 89.8291 122.024 90.5475 122.526 91.2289C123.026 91.9143 123.587 92.5527 124.203 93.136C125.438 94.3159 126.897 95.2362 128.493 95.8426C130.132 96.447 131.857 96.7828 133.602 96.8371C137.114 96.9058 140.603 96.2734 143.867 94.9768C147.056 93.7136 150.085 92.08 152.892 90.1096C155.625 88.2367 158.159 86.0882 160.454 83.698C162.65 81.4074 164.572 78.8697 166.183 76.1359L166.479 75.6367L166.744 75.1258L167.275 74.1079C167.614 73.4254 167.899 72.7234 168.211 72.0409C168.464 71.3311 168.741 70.6408 168.971 69.931C169.201 69.2212 169.439 68.5153 169.634 67.8016C170.462 65.0667 171.086 62.2745 171.502 59.4478C171.89 56.8146 172.004 54.1484 171.842 51.4918C171.688 49.0452 171.243 46.6257 170.516 44.2846C170.325 43.7347 170.176 43.1731 169.954 42.6466C169.732 42.1201 169.525 41.5936 169.315 41.0866L168.589 39.6046C168.364 39.1256 168.103 38.6641 167.809 38.224C166.725 36.5574 165.453 35.0211 164.018 33.6454C162.773 32.4494 161.37 31.4287 159.849 30.6112C158.569 29.9429 157.191 29.4834 155.766 29.2501C154.62 29.0737 153.454 29.0553 152.303 29.1955C151.459 29.31 150.626 29.4979 149.815 29.7571C149.487 29.8702 149.194 29.956 148.945 30.0496L148.333 30.2992C148.166 30.3789 147.991 30.4379 147.81 30.4747Z" fill="#92E3A9"/>
<path d="M156.558 56.1991C156.277 56.1991 155.805 51.5191 155.509 45.6691C155.212 39.8191 155.193 35.1001 155.474 35.1001C155.754 35.1001 156.222 39.7801 156.523 45.6301C156.823 51.4801 156.835 56.1835 156.558 56.1991Z" fill="#92E3A9"/>
<path d="M162.883 43.1107C162.989 43.3681 159.923 44.8657 155.965 46.2658C152.006 47.6659 148.684 48.4459 148.606 48.1807C148.528 47.9155 151.694 46.7104 155.626 45.3103C159.557 43.9102 162.778 42.8494 162.883 43.1107Z" fill="#92E3A9"/>
</svg>
